<svg xmlns="http://www.w3.org/2000/svg" width="800" height="800" viewBox="0 0 800 800">
  <rect width="800" height="800" fill="none"/>
  <g stroke="#D4CFC8" stroke-width="0.8" fill="none" stroke-linecap="round" opacity="0.6">
    <!-- Major cracks -->
    <path d="M0,120 Q45,115 90,130 L145,118 Q180,125 220,110 L290,128 Q340,115 395,135 L460,120 Q510,130 560,118 L620,132 Q670,122 720,138 L800,125"/>
    <path d="M0,280 Q55,270 100,290 L160,275 Q210,285 265,268 L330,290 Q380,278 430,295 L500,280 Q550,290 600,275 L670,292 Q720,280 770,295 L800,288"/>
    <path d="M0,440 Q40,435 85,450 L140,438 Q190,448 240,432 L310,450 Q360,440 410,455 L480,442 Q530,452 580,438 L650,455 Q700,442 760,458 L800,448"/>
    <path d="M0,600 Q50,590 95,608 L155,595 Q200,605 255,588 L320,608 Q370,598 425,612 L490,600 Q540,608 590,595 L660,612 Q710,600 765,615 L800,605"/>
    <path d="M0,750 Q45,740 88,755 L150,742 Q195,752 250,738 L315,758 Q365,748 420,760 L485,748 Q535,758 588,745 L655,762 Q705,750 758,765 L800,755"/>

    <!-- Vertical major cracks -->
    <path d="M120,0 Q115,50 130,95 L118,160 Q125,200 112,260 L132,325 Q120,375 138,430 L122,500 Q132,555 118,615 L135,680 Q122,730 140,780 L128,800"/>
    <path d="M280,0 Q272,45 290,100 L278,155 Q288,210 270,265 L292,330 Q280,380 295,435 L282,500 Q292,555 278,612 L295,675 Q282,730 298,785 L288,800"/>
    <path d="M440,0 Q435,48 452,98 L438,158 Q448,208 435,268 L455,330 Q442,385 458,440 L445,505 Q455,560 440,618 L458,680 Q445,735 460,788 L450,800"/>
    <path d="M600,0 Q592,50 610,98 L598,162 Q608,210 595,268 L615,332 Q602,382 618,440 L605,502 Q612,558 598,618 L618,680 Q605,732 620,788 L610,800"/>
    <path d="M740,0 Q732,48 748,100 L738,158 Q745,212 732,270 L752,332 Q740,385 755,442 L742,505 Q752,560 738,620 L755,682 Q742,735 758,790 L748,800"/>

    <!-- Secondary diagonal cracks -->
    <path d="M0,0 Q35,30 60,65 L85,110 Q100,140 120,120"/>
    <path d="M120,120 Q150,160 180,190 L220,230 Q240,250 280,280"/>
    <path d="M280,280 Q310,310 340,340 L370,375 Q395,400 440,440"/>
    <path d="M440,440 Q470,470 500,500 L530,535 Q560,560 600,600"/>
    <path d="M600,600 Q630,630 660,665 L690,700 Q720,730 750,750"/>

    <path d="M800,0 Q765,32 740,68 L715,108 Q695,142 680,120"/>
    <path d="M680,120 Q650,155 620,195 L585,235 Q560,265 520,280"/>
    <path d="M520,280 Q490,310 455,345 L420,380 Q395,405 360,440"/>
    <path d="M360,440 Q330,472 295,508 L260,542 Q235,568 200,600"/>
    <path d="M200,600 Q170,632 138,668 L105,705 Q78,735 50,750"/>

    <!-- Tertiary cracks branching off -->
    <path d="M90,130 Q110,170 130,200 L148,240"/>
    <path d="M220,110 Q238,145 250,180 L265,215"/>
    <path d="M395,135 Q412,175 425,210 L438,248"/>
    <path d="M560,118 Q575,155 585,195 L598,232"/>

    <path d="M160,275 Q175,240 188,205 L200,170"/>
    <path d="M330,290 Q345,258 355,225 L368,190"/>
    <path d="M500,280 Q515,248 525,215 L538,180"/>
    <path d="M670,292 Q682,258 692,225 L705,190"/>

    <path d="M85,450 Q100,490 115,525 L128,560"/>
    <path d="M240,432 Q255,468 268,505 L280,540"/>
    <path d="M410,455 Q425,492 435,528 L448,562"/>
    <path d="M580,438 Q595,475 605,512 L618,548"/>

    <path d="M155,595 Q168,560 178,528 L190,495"/>
    <path d="M320,608 Q335,575 345,542 L358,508"/>
    <path d="M490,600 Q505,565 515,532 L528,498"/>
    <path d="M660,612 Q672,578 682,545 L695,510"/>

    <!-- Smaller interconnecting cracks -->
    <path d="M45,55 Q65,75 88,95"/>
    <path d="M190,60 Q205,80 225,98"/>
    <path d="M330,55 Q348,78 365,95"/>
    <path d="M470,45 Q488,68 505,90"/>
    <path d="M625,52 Q642,72 660,95"/>
    <path d="M760,48 Q775,70 790,92"/>

    <path d="M50,180 Q68,200 85,218"/>
    <path d="M200,170 Q218,192 235,212"/>
    <path d="M350,185 Q368,205 385,225"/>
    <path d="M510,175 Q528,198 545,218"/>
    <path d="M660,182 Q678,202 695,222"/>

    <path d="M55,350 Q72,370 90,388"/>
    <path d="M195,345 Q212,365 230,385"/>
    <path d="M345,355 Q362,375 380,395"/>
    <path d="M505,348 Q522,368 540,388"/>
    <path d="M655,352 Q672,372 690,392"/>

    <path d="M48,510 Q65,530 82,548"/>
    <path d="M205,515 Q222,535 240,555"/>
    <path d="M355,508 Q372,528 390,548"/>
    <path d="M515,512 Q532,532 550,552"/>
    <path d="M665,518 Q682,538 700,558"/>

    <path d="M52,670 Q70,690 88,708"/>
    <path d="M198,665 Q215,685 232,705"/>
    <path d="M352,672 Q370,692 388,712"/>
    <path d="M508,668 Q525,688 542,708"/>
    <path d="M662,675 Q680,695 698,715"/>

    <!-- Fine detail cracks -->
    <path d="M30,90 Q42,105 55,95" stroke-width="0.4"/>
    <path d="M170,85 Q185,100 198,88" stroke-width="0.4"/>
    <path d="M310,95 Q325,108 340,98" stroke-width="0.4"/>
    <path d="M450,88 Q465,102 478,92" stroke-width="0.4"/>
    <path d="M590,82 Q605,98 618,88" stroke-width="0.4"/>
    <path d="M730,92 Q745,105 758,95" stroke-width="0.4"/>

    <path d="M35,250 Q48,265 62,255" stroke-width="0.4"/>
    <path d="M175,245 Q190,260 205,248" stroke-width="0.4"/>
    <path d="M315,255 Q330,268 345,258" stroke-width="0.4"/>
    <path d="M455,248 Q470,262 485,252" stroke-width="0.4"/>
    <path d="M595,242 Q610,258 625,248" stroke-width="0.4"/>
    <path d="M735,252 Q750,265 765,255" stroke-width="0.4"/>

    <path d="M32,410 Q45,425 58,415" stroke-width="0.4"/>
    <path d="M172,405 Q188,420 202,410" stroke-width="0.4"/>
    <path d="M318,415 Q332,428 348,418" stroke-width="0.4"/>
    <path d="M458,408 Q472,422 488,412" stroke-width="0.4"/>
    <path d="M598,402 Q612,418 628,408" stroke-width="0.4"/>
    <path d="M738,412 Q752,425 768,415" stroke-width="0.4"/>

    <path d="M38,570 Q52,585 65,575" stroke-width="0.4"/>
    <path d="M178,565 Q192,580 208,568" stroke-width="0.4"/>
    <path d="M322,575 Q335,588 350,578" stroke-width="0.4"/>
    <path d="M462,568 Q475,582 490,572" stroke-width="0.4"/>
    <path d="M602,562 Q615,578 630,568" stroke-width="0.4"/>
    <path d="M742,572 Q755,585 770,575" stroke-width="0.4"/>

    <path d="M42,730 Q55,745 68,735" stroke-width="0.4"/>
    <path d="M182,725 Q195,740 210,728" stroke-width="0.4"/>
    <path d="M325,735 Q340,748 355,738" stroke-width="0.4"/>
    <path d="M465,728 Q478,742 492,732" stroke-width="0.4"/>
    <path d="M605,722 Q618,738 632,728" stroke-width="0.4"/>
    <path d="M745,732 Q758,745 772,735" stroke-width="0.4"/>

    <!-- Additional organic irregularity -->
    <path d="M65,160 Q88,175 112,168 L140,185" stroke-width="0.5"/>
    <path d="M225,155 Q248,170 272,162 L300,178" stroke-width="0.5"/>
    <path d="M380,162 Q402,178 428,170 L458,188" stroke-width="0.5"/>
    <path d="M535,158 Q558,172 582,165 L612,182" stroke-width="0.5"/>
    <path d="M690,155 Q712,170 738,162 L768,180" stroke-width="0.5"/>

    <path d="M62,320 Q85,335 108,328 L138,345" stroke-width="0.5"/>
    <path d="M222,315 Q245,330 268,322 L298,338" stroke-width="0.5"/>
    <path d="M378,322 Q400,338 425,330 L455,348" stroke-width="0.5"/>
    <path d="M532,318 Q555,332 578,325 L608,342" stroke-width="0.5"/>
    <path d="M688,315 Q710,330 735,322 L765,340" stroke-width="0.5"/>

    <path d="M68,480 Q90,495 115,488 L142,505" stroke-width="0.5"/>
    <path d="M228,475 Q250,490 275,482 L302,498" stroke-width="0.5"/>
    <path d="M385,482 Q408,498 432,490 L462,508" stroke-width="0.5"/>
    <path d="M538,478 Q562,492 585,485 L615,502" stroke-width="0.5"/>
    <path d="M695,475 Q718,490 742,482 L772,500" stroke-width="0.5"/>

    <path d="M65,640 Q88,655 112,648 L140,665" stroke-width="0.5"/>
    <path d="M225,635 Q248,650 272,642 L300,658" stroke-width="0.5"/>
    <path d="M382,642 Q405,658 430,650 L460,668" stroke-width="0.5"/>
    <path d="M535,638 Q558,652 582,645 L612,662" stroke-width="0.5"/>
    <path d="M692,635 Q715,650 740,642 L770,660" stroke-width="0.5"/>
  </g>

  <!-- Subtle shadows along cracks for depth -->
  <g stroke="#C8C0B5" stroke-width="0.4" fill="none" opacity="0.2" stroke-linecap="round">
    <path d="M1,121 Q46,116 91,131 L146,119 Q181,126 221,111 L291,129 Q341,116 396,136 L461,121 Q511,131 561,119 L621,133 Q671,123 721,139 L800,126"/>
    <path d="M1,281 Q56,271 101,291 L161,276 Q211,286 266,269 L331,291 Q381,279 431,296 L501,281 Q551,291 601,276 L671,293 Q721,281 771,296 L800,289"/>
    <path d="M1,441 Q41,436 86,451 L141,439 Q191,449 241,433 L311,451 Q361,441 411,456 L481,443 Q531,453 581,439 L651,456 Q701,443 761,459 L800,449"/>
    <path d="M1,601 Q51,591 96,609 L156,596 Q201,606 256,589 L321,609 Q371,599 426,613 L491,601 Q541,609 591,596 L661,613 Q711,601 766,616 L800,606"/>
    <path d="M121,1 Q116,51 131,96 L119,161 Q126,201 113,261 L133,326 Q121,376 139,431 L123,501 Q133,556 119,616 L136,681 Q123,731 141,781 L129,800"/>
    <path d="M281,1 Q273,46 291,101 L279,156 Q289,211 271,266 L293,331 Q281,381 296,436 L283,501 Q293,556 279,613 L296,676 Q283,731 299,786 L289,800"/>
    <path d="M441,1 Q436,49 453,99 L439,159 Q449,209 436,269 L456,331 Q443,386 459,441 L446,506 Q456,561 441,619 L459,681 Q446,736 461,789 L451,800"/>
    <path d="M601,1 Q593,51 611,99 L599,163 Q609,211 596,269 L616,333 Q603,383 619,441 L606,503 Q613,559 599,619 L619,681 Q606,733 621,789 L611,800"/>
  </g>
</svg>